# xmcd
#
# Track frame offsets: 
#        150
#        33250
#        63833
#        86450
#        119573
#        165743
#        182303
#        197058
#        219260
#        243703
#        273283
#        304440
#        313373
#
# Disc length: 4766 seconds
#
# Revision: 0
# Processed by: cddbd v1.5.2PL0 Copyright (c) Steve Scherf et al.
# Submitted via: ExactAudioCopy v0.95b4
#
DISCID=b6129c0d
DTITLE=CARSON - ON THE AIR - BLOWN
DYEAR=1973
DGENRE=Blues
TTITLE0=Dingo
TTITLE1=Laid - Back Fell
TTITLE2=Dust My Broom
TTITLE3=Hey Joe
TTITLE4=Boogie
TTITLE5=Sunbury Jam
TTITLE6=Rock And Roll Game
TTITLE7=Better Times Will Come About
TTITLE8=Sunday In The City
TTITLE9=Bananapower
TTITLE10=Boogie
TTITLE11=Let Me Sleep
TTITLE12=Up In Queensland
EXTD=
EXTT0=
EXTT1=
EXTT2=
EXTT3=
EXTT4=
EXTT5=
EXTT6=
EXTT7=
EXTT8=
EXTT9=
EXTT10=
EXTT11=
EXTT12=
PLAYORDER=
